<?xml version="1.0" encoding="UTF-8"?>
<svg xmlns="http://www.w3.org/2000/svg" xmlns:xlink="http://www.w3.org/1999/xlink" width="25px" height="25px" viewBox="0 0 25 25" version="1.1">
<g id="surface1">
<path style="fill:none;stroke-width:10;stroke-linecap:butt;stroke-linejoin:miter;stroke:rgb(14.901961%,73.333333%,64.313725%);stroke-opacity:1;stroke-miterlimit:4;" d="M 120 62.5 C 120 94.257812 94.257812 120 62.5 120 C 30.742188 120 5 94.257812 5 62.5 C 5 30.742188 30.742188 5 62.5 5 C 94.257812 5 120 30.742188 120 62.5 Z M 120 62.5 " transform="matrix(0.2,0,0,0.2,0,0)"/>
<path style="fill:none;stroke-width:10;stroke-linecap:round;stroke-linejoin:miter;stroke:rgb(14.901961%,73.333333%,64.313725%);stroke-opacity:1;stroke-miterlimit:4;" d="M 85.488281 85.488281 C 72.792969 98.164062 52.207031 98.164062 39.511719 85.488281 C 26.835938 72.792969 26.835938 52.207031 39.511719 39.511719 C 52.207031 26.835938 72.792969 26.835938 85.488281 39.511719 " transform="matrix(0.2,0,0,0.2,0,0)"/>
</g>
</svg>
